<svg preserveAspectRatio="none" overflow="visible" style="display: block;" width="53" height="32.1912" viewBox="0 0 53 32.1912" fill="none" xmlns="http://www.w3.org/2000/svg">
<g id="Group">
<g id="Group_2">
<path id="Vector" d="M52.7032 32.1883V25.6806H51.5711C51.5711 25.6806 51.7175 28.8998 50.362 28.8998C49.1991 28.8998 40.2834 28.9358 40.2834 28.9358C40.2834 28.9358 41.5259 27.5007 43.6977 25.4368C47.4945 21.8351 52.7186 17.3683 52.9882 13.4149C53.1756 10.6064 51.1732 5.8906 44.0674 6.58373C42.4809 6.73519 41.4156 6.98934 40.1962 8.17279C39.5646 8.7812 38.8715 9.54107 38.471 10.5166C38.2554 11.0377 37.9987 12.1287 38.0962 13.1376C38.181 13.8898 38.6097 14.6676 38.6559 14.7498V14.7575C39.0204 15.3479 39.6879 15.7612 40.4606 15.7612C41.6235 15.7612 42.5631 14.8448 42.5631 13.7255C42.5631 12.6062 41.6235 11.6923 40.4606 11.6923C40.0524 11.6923 39.6725 11.8078 39.3541 11.9978C39.3182 11.9311 39.2412 11.3304 39.426 10.6937C39.7033 9.75414 40.4221 8.65027 41.5259 8.22926C44.8658 6.94313 47.017 8.47828 48.2082 10.3857C50.7574 14.4469 46.9349 19.635 46.9349 19.635C46.9349 19.635 45.9234 20.7671 43.2177 24.0017C41.2846 26.3173 38.1373 29.3542 37.2542 30.1962V32.1909H52.7007L52.7032 32.1883Z" fill="white"/>
<g id="Group_3">
<path id="Vector_2" d="M38.8253 4.3578C38.1219 2.78158 38.7868 0.948647 40.322 0.260655C41.852 -0.427337 43.6644 0.294028 44.3703 1.87538C45.0789 3.44647 44.4063 5.2794 42.8763 5.96483C41.3514 6.65539 39.5364 5.93402 38.8279 4.3578H38.8253Z" fill="white"/>
<path id="Vector_3" d="M46.2726 4.35765C45.5692 2.78143 46.2341 0.948499 47.7692 0.260507C49.2992 -0.427485 51.1116 0.29388 51.8176 1.87523C52.5261 3.44632 51.8535 5.27926 50.3235 5.96468C48.7986 6.65524 46.9837 5.93387 46.2752 4.35765H46.2726Z" fill="white"/>
</g>
</g>
<path id="Vector_4" d="M1.69431 14.9934C1.6635 13.3325 1.60189 11.9668 1.51204 10.8988C1.41963 9.83092 1.30667 8.96579 1.16805 8.30604C1.03199 7.64372 0.862557 7.13543 0.664888 6.78116C0.467219 6.42433 0.243878 6.14451 0 5.94171H3.93542C4.30252 5.94171 4.61314 6.11884 4.87242 6.47567C5.1317 6.8325 5.33707 7.30742 5.4911 7.90043C5.64256 8.49344 5.77349 9.17116 5.88131 9.9336C5.98913 10.696 6.05587 11.4842 6.08668 12.2979C6.39217 11.4174 6.7721 10.578 7.23162 9.77957C7.68857 8.98376 8.22253 8.27267 8.83351 7.64372C9.44449 7.01734 10.1299 6.51675 10.8924 6.14451C11.6548 5.77228 12.4788 5.58488 13.3645 5.58488C15.3771 5.58488 17.0098 6.12654 18.2626 7.21244C19.5128 8.29834 20.3985 9.7385 20.917 11.5355C21.587 9.9413 22.5112 8.55248 23.687 7.36647C24.8601 6.18045 26.2721 5.58744 27.9202 5.58744C29.232 5.58744 30.3923 5.83389 31.3986 6.32421C32.4049 6.8171 33.2444 7.49482 33.917 8.35738C34.587 9.22251 35.0979 10.2468 35.4496 11.4328C35.8013 12.6188 35.9758 13.8921 35.9758 15.2476V32.1881H31.491V16.0614C31.491 15.2142 31.4063 14.308 31.2395 13.3402C31.0726 12.3749 30.7825 11.4842 30.3692 10.6704C29.9585 9.85659 29.4322 9.18657 28.7904 8.66287C28.1486 8.13661 27.34 7.87476 26.3645 7.87476C25.4788 7.87476 24.5649 8.39075 23.6176 9.42531C22.6704 10.4599 21.8925 11.7049 21.2841 13.1631C21.3765 13.8074 21.4202 14.5031 21.4202 15.2476V32.1881H16.9354V16.0614C16.9354 15.2142 16.8507 14.308 16.6838 13.3402C16.5169 12.3749 16.2269 11.4842 15.8135 10.6704C15.4002 9.85659 14.8765 9.18657 14.2348 8.66287C13.593 8.13661 12.7843 7.87476 11.8088 7.87476C11.2903 7.87476 10.7563 8.06216 10.2069 8.4344C9.65756 8.80663 9.1313 9.30722 8.62814 9.9336C8.12498 10.5626 7.66033 11.2813 7.23162 12.0951C6.80291 12.9089 6.45378 13.7561 6.17909 14.6366V32.1881H1.69431V14.9934Z" fill="white"/>
</g>
</svg>
